# xmcd
#
# Track frame offsets: 
#        182
#        16955
#        38985
#        57970
#        78147
#        106150
#        123700
#        151740
#        165922
#        201490
#
# Disc length: 3293 seconds
#
# Revision: 3
# Processed by: cddbd v1.5.2PL0 Copyright (c) Steve Scherf et al.
# Submitted via: ExactAudioCopyFreeDBPlugin 1.0
#
DISCID=740cdb0a
DTITLE=Tom Principato - Blue Licks and Voodoo Things
DYEAR=1995
DGENRE=blues
TTITLE0=Knockin' On The Door
TTITLE1=(It Musta Been Some Kinda) Voodoo Thing
TTITLE2=The Hunter
TTITLE3=Livin' Here Too
TTITLE4=In The Clouds
TTITLE5=I'm Gone
TTITLE6=In A Dream
TTITLE7=Come On Home
TTITLE8=Return Of The Voodoo Child (Live)
TTITLE9=Drivin' South (Live)
EXTD=
EXTT0=
EXTT1=
EXTT2=
EXTT3=
EXTT4=
EXTT5=
EXTT6=
EXTT7=
EXTT8=
EXTT9=
PLAYORDER=
